<?xml version="1.0" encoding="UTF-8"?>
<svg id="Layer_1" data-name="Layer 1" xmlns="http://www.w3.org/2000/svg" viewBox="0 0 101.91 117.37">
  <defs>
    <style>
      .cls-1 {
        fill: none;
        stroke: #fff;
        stroke-miterlimit: 10;
        stroke-width: 7px;
      }
    </style>
  </defs>
  <g>
    <polyline class="cls-1" points="98.31 66.22 98.4 85.8 81.49 95.66"/>
    <polyline class="cls-1" points="68.1 103.47 51.2 113.33 34.2 103.62"/>
    <polyline class="cls-1" points="20.75 95.93 3.75 86.22 3.67 66.64"/>
    <polyline class="cls-1" points="3.6 51.15 3.51 31.57 20.42 21.71"/>
    <polyline class="cls-1" points="33.8 13.9 50.71 4.04 67.7 13.75"/>
    <polyline class="cls-1" points="81.16 21.44 98.15 31.15 98.24 50.73"/>
  </g>
  <g>
    <line class="cls-1" x1="51.2" y1="113.33" x2="51.11" y2="93.76"/>
    <polyline class="cls-1" points="51.04 78.26 50.95 58.69 33.96 48.97"/>
    <polyline class="cls-1" points="20.5 41.29 3.51 31.57 20.5 41.29"/>
    <polyline class="cls-1" points="33.96 48.97 50.95 58.69 67.86 48.82"/>
    <line class="cls-1" x1="81.25" y1="41.01" x2="98.15" y2="31.15"/>
  </g>
</svg>