<?xml version="1.0" encoding="UTF-8"?>
<svg id="Layer_1" data-name="Layer 1" xmlns="http://www.w3.org/2000/svg" viewBox="0 0 284.01 117.37">
  <defs>
    <style>
      .cls-1 {
        fill: none;
        stroke: #fff;
        stroke-miterlimit: 10;
        stroke-width: 7px;
      }
    </style>
  </defs>
  <g>
    <g>
      <polyline class="cls-1" points="27.36 30.82 27.36 66.57 63.11 66.57"/>
      <line class="cls-1" x1="3.52" y1="90.41" x2="27.36" y2="66.57"/>
    </g>
    <polyline class="cls-1" points="3.5 70.49 3.5 90.37 23.38 90.37"/>
    <polyline class="cls-1" points="49.07 80.63 63.13 66.58 49.07 52.52"/>
    <polyline class="cls-1" points="41.41 44.88 27.35 30.82 13.3 44.88"/>
  </g>
  <g>
    <g>
      <polyline class="cls-1" points="187.41 66.22 187.5 85.8 170.59 95.66"/>
      <polyline class="cls-1" points="157.21 103.47 140.3 113.33 123.31 103.62"/>
      <polyline class="cls-1" points="109.85 95.93 92.86 86.22 92.77 66.64"/>
      <polyline class="cls-1" points="92.7 51.15 92.61 31.57 109.52 21.71"/>
      <polyline class="cls-1" points="122.91 13.9 139.81 4.04 156.81 13.75"/>
      <polyline class="cls-1" points="170.26 21.44 187.26 31.15 187.35 50.73"/>
    </g>
    <g>
      <line class="cls-1" x1="140.3" y1="113.33" x2="140.21" y2="93.76"/>
      <polyline class="cls-1" points="140.14 78.26 140.06 58.69 123.06 48.97"/>
      <polyline class="cls-1" points="109.61 41.29 92.61 31.57 109.61 41.29"/>
      <polyline class="cls-1" points="123.06 48.97 140.06 58.69 156.96 48.82"/>
      <line class="cls-1" x1="170.35" y1="41.01" x2="187.26" y2="31.15"/>
    </g>
  </g>
  <g>
    <polygon class="cls-1" points="280.5 76.25 249.92 94.09 219.18 76.52 219.02 41.12 249.61 23.28 280.34 40.85 280.5 76.25"/>
    <polyline class="cls-1" points="249.92 94.09 249.76 58.69 219.02 41.12 249.76 58.69 280.34 40.85"/>
  </g>
</svg>